├Ä┬á├Ä┬╗├Ä┬«├Å┬ü├Ä┬╡├ÅΓÇÜ ├Å┼Æ├Ä┬╜├Ä┬┐├Ä┬╝├Ä┬▒                     : Don Juan DeMarco.divx (├Ä┬╝├Ä┬╡ ├Ä┬╡├Ä┬╜├Å╞Æ├ÅΓÇ░├Ä┬╝├Ä┬▒├ÅΓÇ₧├ÅΓÇ░├Ä┬╝├Ä┬¡├Ä┬╜├Ä┬┐├ÅΓÇª├ÅΓÇÜ      
                                   ├Ä┬╡├Ä┬╗├Ä┬╗├Ä┬╖├Ä┬╜├Ä┬╣├Ä┬║├Ä┬┐├Å┬ì├ÅΓÇÜ ├ÅΓÇª├ÅΓé¼├Å┼Æ├ÅΓÇ₧├Ä┬╣├ÅΓÇ₧├Ä┬╗├Ä┬┐├ÅΓÇª├ÅΓÇÜ)
├Ä┼ô├Ä┬┐├Å┬ü├ÅΓÇá├Ä┬┐├ÅΓé¼├Ä┬┐├Ä┬»├Ä┬╖├Å╞Æ├Ä┬╖                      : DivX
├Ä┼ô├Ä┬┐├Å┬ü├ÅΓÇá├Ä┬┐├ÅΓé¼├Ä┬┐├Ä┬»├Ä┬╖├Å╞Æ├Ä┬╖/Info                 : Hack of AVI
├Ä┼ô├Ä┬¡├Ä┬│├Ä┬╡├Ä┬╕├Ä┬┐├ÅΓÇÜ ├Ä┬▒├Å┬ü├ÅΓÇí├Ä┬╡├Ä┬»├Ä┬┐├ÅΓÇª                  : 692 MiB
Duration                         : 1h 33mn
├Ä┬ú├ÅΓÇª├Ä┬╜├Ä┬┐├Ä┬╗├Ä┬╣├Ä┬║├Å┼Æ BitRate                 : 1038 Kbps

Video
├Ä┼ô├Ä┬┐├Å┬ü├ÅΓÇá├Ä┬┐├ÅΓé¼├Ä┬┐├Ä┬»├Ä┬╖├Å╞Æ├Ä┬╖                      : MPEG-4 Visual
Format settings, BVOP            : Yes
Format settings, QPel            : No
Format settings, GMC             : 0 warppoint
Format settings, Matrix          : Default
Codec ID                         : DIVX
Codec ID/Info                    : Project Mayo
Codec ID/Hint                    : DivX 4
Duration                         : 1h 33mn
├Ä┬í├ÅΓÇª├Ä┬╕├Ä┬╝├Å┼Æ├ÅΓÇÜ ├Ä┬╝├Ä┬╡├ÅΓÇ₧├Ä┬¼├Ä┬┤├Ä┬┐├Å╞Æ├Ä┬╖├ÅΓÇÜ ├Ä┬┤├Ä┬╡├Ä┬┤├Ä┬┐├Ä┬╝├Ä┬¡├Ä┬╜├ÅΓÇ░├Ä┬╜       : 897 Kbps
├Ä┬á├Ä┬╗├Ä┬¼├ÅΓÇ₧├Ä┬┐├ÅΓÇÜ                           : 640 ├Ä┬╡├Ä┬╣├Ä┬║├Ä┬┐├Ä┬╜├Ä┬┐├Å╞Æ├ÅΓÇ₧├Ä┬┐├Ä┬╣├ÅΓÇí├Ä┬╡├Ä┬»├Ä┬▒
├Ä┼╜├Å╦å├Ä┬┐├ÅΓÇÜ                             : 360 ├Ä┬╡├Ä┬╣├Ä┬║├Ä┬┐├Ä┬╜├Ä┬┐├Å╞Æ├ÅΓÇ₧├Ä┬┐├Ä┬╣├ÅΓÇí├Ä┬╡├Ä┬»├Ä┬▒
├ÄΓÇ║├Å┼Æ├Ä┬│├Ä┬┐├ÅΓÇÜ ├Ä┬╡├Ä┬╣├Ä┬║├Å┼Æ├Ä┬╜├Ä┬▒├ÅΓÇÜ                    : 16/9
├Ä┬í├ÅΓÇª├Ä┬╕├Ä┬╝├Å┼Æ├ÅΓÇÜ ├Ä┬▒├Ä┬╜├Ä┬▒├Ä┬╜├Ä┬¡├ÅΓÇ░├Å╞Æ├Ä┬╖├ÅΓÇÜ ├ÅΓé¼├Ä┬╗├Ä┬▒├Ä┬╣├Å╞Æ├Ä┬»├Ä┬┐├ÅΓÇª        : 25.000 fps
├ÄΓÇÿ├Ä┬╜├Ä┬¼├Ä┬╗├ÅΓÇª├Å╞Æ├Ä┬╖                          : 8 bits
Colorimetry                      : 4:2:0
Scan type                        : Progressive
Bits/(├ÄΓÇó├Ä┬╣├Ä┬║├Ä┬┐├Ä┬╜├Ä┬┐├Å╞Æ├ÅΓÇ₧├Ä┬┐├Ä┬╣├ÅΓÇí├Ä┬╡├Ä┬»├Ä┬┐*├Ä┬á├Ä┬╗├Ä┬▒├Ä┬»├Å╞Æ├Ä┬╣├Ä┬┐)    : 0.156
Stream size                      : 597 MiB
├Ä┬ñ├Ä┬»├ÅΓÇ₧├Ä┬╗├Ä┬┐├ÅΓÇÜ                           : Video
├ÄΓÇÖ├Ä┬╣├Ä┬▓├Ä┬╗├Ä┬╣├Ä┬┐├Ä┬╕├Ä┬«├Ä┬║├Ä┬╖ ├Ä┬║├ÅΓÇ░├Ä┬┤├Ä┬╣├Ä┬║├Ä┬┐├ÅΓé¼├Ä┬┐├Ä┬╣├Ä┬╖├ÅΓÇ₧├Ä┬«          : DivX503b2676

Audio
├Ä┼ô├Ä┬┐├Å┬ü├ÅΓÇá├Ä┬┐├ÅΓé¼├Ä┬┐├Ä┬»├Ä┬╖├Å╞Æ├Ä┬╖                      : MPEG Audio
Format version                   : Version 1 / Layer 3
Codec ID                         : 55
Codec ID/Hint                    : MP3
Duration                         : 1h 33mn
Bit rate mode                    : CBR
├Ä┬í├ÅΓÇª├Ä┬╕├Ä┬╝├Å┼Æ├ÅΓÇÜ ├Ä┬╝├Ä┬╡├ÅΓÇ₧├Ä┬¼├Ä┬┤├Ä┬┐├Å╞Æ├Ä┬╖├ÅΓÇÜ ├Ä┬┤├Ä┬╡├Ä┬┤├Ä┬┐├Ä┬╝├Ä┬¡├Ä┬╜├ÅΓÇ░├Ä┬╜       : 128 Kbps
├Ä┼í├Ä┬▒├Ä┬╜├Ä┬¼├Ä┬╗├Ä┬╣(├Ä┬▒)                        : 2 ├Ä┬║├Ä┬▒├Ä┬╜├Ä┬¼├Ä┬╗├Ä┬╣├Ä┬▒
├Ä┬ú├ÅΓÇª├ÅΓÇí├Ä┬╜├Å┼Æ├ÅΓÇ₧├Ä┬╖├ÅΓÇ₧├Ä┬▒ ├Ä┬┤├Ä┬╡├Ä┬╣├Ä┬│├Ä┬╝├Ä┬▒├ÅΓÇ₧├Ä┬┐├Ä┬╗├Ä┬╖├Å╦å├Ä┬»├Ä┬▒├ÅΓÇÜ         : 44.1 KHz
├ÄΓÇÿ├Ä┬╜├Ä┬¼├Ä┬╗├ÅΓÇª├Å╞Æ├Ä┬╖                          : 16 bits
├Ä┼í├Ä┬▒├Ä┬╕├Ä┬╖├Å╞Æ├ÅΓÇ₧├Ä┬¡├Å┬ü├Ä┬╣├Å╞Æ├Ä┬╖ video                : 26ms
Stream size                      : 85.3 MiB
├Ä┬ñ├Ä┬»├ÅΓÇ₧├Ä┬╗├Ä┬┐├ÅΓÇÜ                           : Audio

Text
├Ä┼ô├Ä┬┐├Å┬ü├ÅΓÇá├Ä┬┐├ÅΓé¼├Ä┬┐├Ä┬»├Ä┬╖├Å╞Æ├Ä┬╖                      : DivX Subtitle
Codec ID                         : DXSB
Codec ID/Info                    : Subtitle in AVI from DivX networks
├Ä┬á├Ä┬╗├Ä┬¼├ÅΓÇ₧├Ä┬┐├ÅΓÇÜ                           : 720 ├Ä┬╡├Ä┬╣├Ä┬║├Ä┬┐├Ä┬╜├Ä┬┐├Å╞Æ├ÅΓÇ₧├Ä┬┐├Ä┬╣├ÅΓÇí├Ä┬╡├Ä┬»├Ä┬▒
├Ä┼╜├Å╦å├Ä┬┐├ÅΓÇÜ                             : 576 ├Ä┬╡├Ä┬╣├Ä┬║├Ä┬┐├Ä┬╜├Ä┬┐├Å╞Æ├ÅΓÇ₧├Ä┬┐├Ä┬╣├ÅΓÇí├Ä┬╡├Ä┬»├Ä┬▒
├ÄΓÇÿ├Ä┬╜├Ä┬¼├Ä┬╗├ÅΓÇª├Å╞Æ├Ä┬╖                          : 4 bits
Stream size                      : 2.56 MiB
├Ä┬ñ├Ä┬»├ÅΓÇ₧├Ä┬╗├Ä┬┐├ÅΓÇÜ                           : Subtitle - el;02

